<svg viewBox="0 0 24 24" xmlns="http://www.w3.org/2000/svg"><g fill="#8f959e"><circle cx="6.377" cy="7.805" opacity=".4" r="3.416"/><path d="m9.554 12.887c-.862-.377-1.909-.621-3.177-.621-4.591 0-6.377 3.131-6.377 4.587 0 1.23 2.712 1.696 5.107 1.812.09-1.706 1.458-4.267 4.447-5.778z" opacity=".4"/><path d="m19.595 7.18c0 2.434-1.973 4.406-4.406 4.406s-4.406-1.973-4.406-4.406 1.973-4.406 4.406-4.406 4.406 1.973 4.406 4.406m-4.407 5.753c-6.345 0-8.812 4.037-8.812 5.915s5.252 2.378 8.812 2.378 8.812-.5 8.812-2.378-2.467-5.915-8.812-5.915" fill-rule="evenodd"/></g></svg>