<svg viewBox="0 0 24 24" xmlns="http://www.w3.org/2000/svg"><path d="m18.49 5.51h-.98c0-3.038-2.472-5.51-5.51-5.51s-5.51 2.472-5.51 5.51h-.98c-1.662 0-3.01 1.348-3.01 3.01v9.88c0 1.662 1.348 3.01 3.01 3.01h12.98c1.662 0 3.01-1.348 3.01-3.01v-9.88c0-1.662-1.348-3.01-3.01-3.01zm-5.39 8.508v2.082c0 .607-.492 1.1-1.1 1.1s-1.1-.492-1.1-1.1v-2.076c-.612-.366-1.031-1.025-1.05-1.794v-.1c.03-1.19 1.01-2.13 2.2-2.1 1.15.03 2.07.95 2.1 2.1.02.804-.407 1.504-1.05 1.888zm-4.41-8.508c0-1.825 1.485-3.31 3.31-3.31s3.31 1.485 3.31 3.31z" fill="#b0b8c1"/></svg>