<svg viewBox="0 0 144 144" xmlns="http://www.w3.org/2000/svg" xmlns:xlink="http://www.w3.org/1999/xlink"><clipPath id="a"><path d="m114 6h-84c-13.25 0-24 10.75-24 24v84c0 13.25 10.75 24 24 24h84c13.25 0 24-10.75 24-24v-84c0-13.25-10.75-24-24-24z"/></clipPath><g clip-path="url(#a)" fill="#acb4bd"><circle cx="47.11" cy="47.23" r="19.26" transform="matrix(.70710678 -.70710678 .70710678 .70710678 -19.6 47.15)"/><path d="m54.78 79.09c-.53-1.07-1.4-1.93-2.46-2.46-2.72-1.36-6.02-.26-7.38 2.46l-13.11 26.22c-.38.76-.58 1.61-.58 2.46 0 3.04 2.47 5.5 5.5 5.5h26.22c.85 0 1.7-.2 2.46-.58 2.72-1.36 3.82-4.67 2.46-7.38z"/><circle cx="93.89" cy="96.77" r="19.26" transform="matrix(.9870804 -.16022575 .16022575 .9870804 -14.29 16.29)"/><rect height="38.52" rx="11.01" width="38.52" x="74.63" y="27.97"/></g></svg>