<svg viewBox="0 0 24 24" xmlns="http://www.w3.org/2000/svg"><g fill="#8f959e"><path d="m18.329 3h-.583v-.708c0-.575-.466-1.041-1.041-1.041s-1.041.466-1.041 1.041v.708h-7.328v-.708c0-.575-.466-1.041-1.041-1.041s-1.041.466-1.041 1.041v.708h-.504c-1.657 0-3 1.343-3 3v1.435h18.5v-1.514c0-1.613-1.308-2.921-2.921-2.921z"/><path d="m2.75 7.435v11.066c0 1.657 1.343 3 3 3h12.5c1.657 0 3-1.343 3-3v-11.066zm14.864 11.068h-3.999c-.607 0-1.1-.492-1.1-1.1s.493-1.1 1.1-1.1h3.999c.607 0 1.1.492 1.1 1.1s-.492 1.1-1.1 1.1z" opacity=".4"/><path d="m17.614 18.503h-3.999c-.607 0-1.1-.492-1.1-1.1s.493-1.1 1.1-1.1h3.999c.607 0 1.1.492 1.1 1.1s-.492 1.1-1.1 1.1z"/></g></svg>