<svg fill="none" height="24" viewBox="0 0 24 24" width="24" xmlns="http://www.w3.org/2000/svg"><g clip-rule="evenodd" fill="#b0b8c1" fill-rule="evenodd"><path d="m20.7873 3.10302c0 1.439-1.177 2.605-2.63 2.605-1.451 0-2.63-1.166-2.63-2.605 0-1.438 1.179-2.603997 2.63-2.603997 1.453 0 2.63 1.165997 2.63 2.603997z"/><path d="m21.3016 10.9111-2.653-.278-1.438-3.76899c-.1407-.35989-.3865-.66907-.7054-.88722-.319-.21815-.6962-.33516-1.0826-.33578h-4.39c-.718 0-1.39501.314-1.85701.862l-2.31 2.747c-.473.562-.396 1.39899.172 1.86799.57.47 1.414.393 1.887-.17l2.23201-2.65299h1.144l-2.80801 4.98899-2.884 3.683-3.631-.372c-.35214-.0376-.7048.0661-.98058.2883-.27578.2221-.45216.5447-.49042.8967-.0174.1741-.00026.35.05042.5174.05068.1675.13391.3234.24492.4586.11101.1353.24762.2473.402.3297.15438.0823.3235.1334.49766.1503l4.372.447c.46.047.913-.144 1.197-.506l2.87701-3.677 3.147 2.453 1.626 4.654c.0928.2616.2645.4879.4915.6477.2269.1598.4979.2452.7755.2443.2126.0022.4227-.0469.6124-.1429.1897-.0961.3535-.2363.4776-.409.1242-.1727.205-.3726.2356-.5831.0306-.2104.0102-.4251-.0596-.626l-1.628-4.654c-.1781-.5085-.4997-.9545-.926-1.284l-2.031-1.57 1.96-3.481.465 1.217c.266.7.899 1.183 1.65 1.263l3.077.321c.3518.0387.7045-.0638.9808-.2851.2762-.2212.4532-.5431.4922-.8949.0181-.1741.0016-.35-.0485-.5177-.0502-.1677-.1329-.3239-.2436-.4594-.1107-.1356-.2471-.248-.4014-.3307-.1542-.0827-.3243-.1341-.4985-.1512z"/></g></svg>