<svg viewBox="0 0 24 24" xmlns="http://www.w3.org/2000/svg"><path d="m10.397 16.915c2.444-1.878 4.719-4.153 6.476-6.476l-3.325-3.325c-2.444 1.878-4.719 4.153-6.476 6.476z" fill="#89d8d8"/><g fill="#30b6b6"><path d="m4.948 12.423h.111c.69 0 1.353.274 1.841.762l3.929 3.929c.488.488.762 1.15.762 1.841 0 .69-.274 1.353-.762 1.841l-1.191 1.191c-.488.488-1.15.762-1.841.762h-.056c-.69 0-1.353-.274-1.841-.762l-3.841-3.841c-.488-.488-.762-1.15-.762-1.841v-.235c0-.692.276-1.356.766-1.845l1.049-1.044c.488-.486 1.148-.758 1.837-.758z"/><path d="m16.062 1.25h.111c.69 0 1.353.274 1.841.762l3.929 3.929c.488.488.762 1.15.762 1.841 0 .69-.274 1.353-.762 1.841l-1.191 1.191c-.488.488-1.15.762-1.841.762h-.056c-.69 0-1.353-.274-1.841-.762l-3.841-3.841c-.488-.488-.762-1.15-.762-1.841v-.235c0-.692.276-1.356.766-1.845l1.049-1.044c.488-.486 1.148-.758 1.837-.758z"/></g></svg>