<svg xmlns="http://www.w3.org/2000/svg" viewBox="0 0 24 24" class="line-icon"><path fill="#B0B8C1" d="M20.273 10l1.484-1.485a.9.9 0 10-1.272-1.273L19 8.727l-1.485-1.485a.901.901 0 00-1.273 1.273L17.727 10l-1.485 1.485a.9.9 0 101.273 1.273L19 11.273l1.485 1.485a.9.9 0 001.272-1.273L20.273 10zM10 11.456a4.354 4.354 0 100-8.708 4.354 4.354 0 000 8.708m0 1.332c-6.269 0-8.706 3.989-8.706 5.845 0 1.855 5.189 2.349 8.706 2.349 3.517 0 8.706-.494 8.706-2.35 0-1.855-2.437-5.844-8.706-5.844" fill-rule="evenodd"/></svg>