<svg fill="none" height="24" viewBox="0 0 24 24" width="24" xmlns="http://www.w3.org/2000/svg"><path clip-rule="evenodd" d="m13.7222 12.0001 5.3412-5.3412c.1054-.10532.189-.23037.2461-.36799.057-.13763.0863-.28515.0865-.43414 0-.14899-.0293-.29652-.0863-.43418-.057-.13767-.1406-.26276-.2459-.36814-.1053-.10539-.2303-.18899-.3679-.24604-.1376-.05706-.2852-.08644-.4341-.08649-.1491-.00004-.2966.02926-.4342.08624-.1377.05696-.2628.14049-.3681.24582l-5.3413 5.34222-5.34218-5.34222c-.21517-.20098-.5-.31049-.79438-.30542s-.57527.1243-.7834.33255c-.20812.20825-.3272.48921-.33209.78359s.10479.57916.30588.7942l5.34217 5.3412-5.34217 5.3412c-.15788.159-.26523.3611-.30856.581-.04331.2198-.02066.4475.0651.6545.08577.207.23083.384.41693.5088.18611.1248.40494.1917.62899.1925.29018 0 .58035-.1106.80153-.3318l5.34218-5.3421 5.3413 5.3421c.1052.1055.2301.1892.3678.2464.1376.0572.2851.0866.4341.0866.1491 0 .2966-.0294.4342-.0866.1377-.0572.2626-.1409.3678-.2464.1054-.1054.1891-.2305.2462-.3681.0571-.1377.0865-.2853.0865-.4343 0-.1491-.0294-.2967-.0865-.4344s-.1408-.2629-.2462-.3682z" fill="#b0b8c1" fill-rule="evenodd"/></svg>