<svg viewBox="0 0 24 24" xmlns="http://www.w3.org/2000/svg"><path d="m15.066 16.736a.9.9 0 1 1 -1.8 0v-5.006a.9.9 0 0 1 1.8 0zm-4.133 0a.9.9 0 0 1 -1.8 0v-5.006a.9.9 0 0 1 1.8 0zm-1.904-12.877a1 1 0 0 1 1-1h4.144c.551 0 1 .448 1 1v.941h-6.144zm11.27.941h-3.126v-.941c0-1.654-1.345-3-3-3h-4.144c-1.654 0-3 1.346-3 3v.941h-3.329a1.2 1.2 0 0 0 -1.2 1.2v.6a1.2 1.2 0 0 0 1.2 1.2h.131l.472 12.036a2.4 2.4 0 0 0 2.399 2.305h10.796a2.398 2.398 0 0 0 2.397-2.305l.474-12.05a1.192 1.192 0 0 0 1.131-1.186v-.6c0-.662-.538-1.2-1.201-1.2z" fill="#8f959e"/></svg>