<svg viewBox="0 0 24 24" xmlns="http://www.w3.org/2000/svg" class="line-icon"><defs><filter color-interpolation-filters="auto" id="icon-school-mono-a"><feColorMatrix in="SourceGraphic" values="0 0 0 0 0.690196 0 0 0 0 0.721569 0 0 0 0 0.756863 0 0 0 1.000000 0"/></filter></defs><g transform="translate(2.88 1.906)" filter="url(#icon-school-mono-a)" fill="none" fill-rule="evenodd"><path d="M9.121 0c.155 0 .289.095.346.23l.015.051 4.46 1.561a.2.2 0 01.06.347l-.06.031-4.446 1.556.001 2.01a.882.882 0 01.138.086l.09.08 2.823 2.833h4.748c.46 0 .838.414.89.946l.006.125v8.71c0 .55-.346 1.003-.791 1.065l-.105.007H.897c-.46 0-.84-.414-.891-.946L0 18.567V9.856c0-.549.346-1.002.792-1.064l.105-.007h4.749l2.82-2.833a.889.889 0 01.28-.19V.375c0-.207.168-.375.375-.375zM3.79 15.337H2.07v1.717h1.718v-1.717zm6.19 0H8.263v1.717H9.98v-1.717zm6.36 0h-1.716v1.717h1.717v-1.717zM3.79 11.676H2.07v1.717h1.718v-1.717zm12.55 0h-1.716v1.717h1.717v-1.717zm-7.132-1.469a1.524 1.524 0 10-.002 3.05 1.524 1.524 0 00.002-3.05z" fill="#CDD5DE"/></g></svg>