<svg viewBox="0 0 24 24" xmlns="http://www.w3.org/2000/svg" class="line-icon"><g fill="#ADB7C1" fill-rule="evenodd"><path d="M9.125 17.125a1.8 1.8 0 110 3.6 1.8 1.8 0 010-3.6M10.925 12.125c0 1-.8 1.8-1.8 1.8s-1.8-.8-1.8-1.8.8-1.8 1.8-1.8 1.8.8 1.8 1.8M10.925 5.325c0 1-.8 1.8-1.8 1.8s-1.8-.8-1.8-1.8.8-1.8 1.8-1.8 1.8.8 1.8 1.8M15.125 17.125a1.8 1.8 0 110 3.6 1.8 1.8 0 010-3.6M16.925 12.125c0 1-.8 1.8-1.8 1.8s-1.8-.8-1.8-1.8.8-1.8 1.8-1.8 1.8.8 1.8 1.8M16.925 5.325c0 1-.8 1.8-1.8 1.8s-1.8-.8-1.8-1.8.8-1.8 1.8-1.8 1.8.8 1.8 1.8"/></g></svg>