<svg enable-background="new 0 0 24 24" viewBox="0 0 24 24" xmlns="http://www.w3.org/2000/svg"><path d="m20.8 11.6-4.8-.7-.7-.2c-.3-.1-.5-.2-.7-.4-.1-.1-.1-.1-.2-.2 0 0-.1-.1-.1-.1l-.1-.1c-.1-.4-.2-.8-.2-1.2l.1-.8 1.1-5.1c0-.2-.1-.3-.2-.3-.2 0-.4.1-.5.3l-2.6 5-.5.8c-.3.4-.6.8-1.1 1.2l-.1.1c0 .1-.1.1-.2.2s-.2.1-.4.2c-.3.2-.7.3-.9.4l-.8.2-5.4.7c-.2 0-.4.2-.4.4-.1.2 0 .3.2.4l4.7.7.8.2c.4.1.7.4.9.7 0 .1.1.1.1.2s.1.2.1.3c.1.2.2.5.1.8l-.1.7-1.1 5.1c0 .2.1.3.2.3.2 0 .4-.1.5-.3l2.5-5 .5-.8c.3-.4.6-.8 1.1-1.1.1 0 .1-.1.2-.1 0 0 .1-.1.2-.1.4-.3.9-.5 1.3-.6l.9-.2 5.3-.7c.2 0 .4-.2.4-.4.2-.3.1-.5-.1-.5z" fill="#93fdff"/></svg>