<svg xmlns="http://www.w3.org/2000/svg" viewBox="0 0 24 24" class="line-icon"><g fill="#B0B8C1" fill-rule="evenodd"><path d="M22.36 20.84l-3.437-4.81a2.103 2.103 0 00-1.165-.803l-.054.065c-.895 1.06-2.033 2.25-3.583 3.748a3.04 3.04 0 01-2.12.855 3.035 3.035 0 01-2.119-.854c-1.582-1.53-2.738-2.743-3.64-3.817a2.096 2.096 0 00-1.175.805L1.63 20.84a1.05 1.05 0 00.855 1.66h19.02c.854 0 1.35-.965.854-1.66"/><path d="M12 6.302a2 2 0 11.002 3.999 2 2 0 01-.001-4m-.728 11.302a1.054 1.054 0 001.458-.001c4.618-4.462 6.072-6.7 6.072-9.3 0-4.404-4.187-7.831-8.797-6.518-2.91.83-4.806 3.492-4.806 6.518 0 2.602 1.455 4.839 6.073 9.3"/></g></svg>