<svg xmlns="http://www.w3.org/2000/svg" viewBox="0 0 24 24" class="line-icon"><g fill="#B0B8C1" fill-rule="evenodd"><path d="M12 18.267a5.252 5.252 0 01-5.246-5.246A5.252 5.252 0 0112 7.774a5.252 5.252 0 015.246 5.247A5.252 5.252 0 0112 18.267m8.113-13.131h-2.954l-1.113-2.169a2.1 2.1 0 00-1.868-1.14H9.765a2.1 2.1 0 00-1.888 1.18L6.841 5.136H3.887a2.52 2.52 0 00-2.521 2.52v11.601a2.52 2.52 0 002.521 2.52h16.226a2.52 2.52 0 002.521-2.52V7.656a2.52 2.52 0 00-2.521-2.52"/><path d="M12 9.664a3.359 3.359 0 00-3.355 3.356A3.358 3.358 0 0012 16.376a3.358 3.358 0 003.355-3.356A3.359 3.359 0 0012 9.664"/></g></svg>