<svg viewBox="0 0 24 24" xmlns="http://www.w3.org/2000/svg"><path d="m22 14.85-1-.8c-.5-.5-.8-1.2-.8-1.9s.3-1.4.8-1.9l.9-1c.4-.4.5-1 .2-1.5l-1.3-2.2c-.3-.5-.8-.7-1.4-.6l-1.3.3c-.7.2-1.5.1-2.1-.3s-1.1-.9-1.3-1.6l-.4-1.3c0-.6-.5-1-1-1h-2.5c-.6 0-1 .4-1.2.9l-.4 1.4c-.2.6-.6 1.2-1.2 1.5-.1 0-.1.1-.2.1-.6.3-1.3.4-1.9.3l-1.4-.4c-.5-.1-1.1.1-1.4.6l-1.3 2.2c-.3.5-.2 1.1.2 1.5l.9 1c.5.5.8 1.2.8 1.9s-.3 1.4-.8 1.9l-.5.5c-.6.7-.8 1.7-.3 2.5l.9 1.6c.3.5.8.7 1.4.6l1.4-.4c.6-.2 1.3-.1 1.9.3.1 0 .1.1.2.1.6.3 1 .9 1.2 1.5l.4 1.4c.2.5.6.9 1.2.9h2.5c.6 0 1-.4 1.2-.9l.4-1.4c.2-.6.6-1.2 1.2-1.5.1 0 .1-.1.2-.1.6-.3 1.3-.4 1.9-.3l1.4.4c.5.1 1.1-.1 1.4-.6l1.3-2.2c.3-.5.2-1.1-.2-1.5zm-10 .9c-2 0-3.7-1.6-3.7-3.7s1.6-3.7 3.7-3.7 3.7 1.6 3.7 3.7-1.7 3.7-3.7 3.7z" fill="#b0b8c1" fill-rule="evenodd"/></svg>