<svg xmlns="http://www.w3.org/2000/svg" viewBox="0 0 24 24" class="line-icon"><path d="M21 9.2c.7 0 1.2-.5 1.2-1.2s-.5-1.2-1.2-1.2h-2.4l.9-3.5c.2-.6-.2-1.3-.9-1.5-.6-.2-1.3.2-1.5.9L16 6.8h-5.5l.9-3.5c.2-.6-.2-1.3-.9-1.5-.6-.2-1.3.2-1.5.9l-.8 4.1h-4C3.5 6.8 3 7.4 3 8s.5 1.2 1.2 1.2h3.3L6 14.7H3c-.7 0-1.2.5-1.2 1.2s.5 1.2 1.2 1.2h2.4l-.9 3.5c-.2.6.2 1.3.9 1.5h.3c.5 0 1-.4 1.2-.9L8 17.1h5.5l-.9 3.5c-.2.6.2 1.3.9 1.5h.3c.5 0 1-.4 1.2-.9l1.1-4.1h4c.7 0 1.2-.5 1.2-1.2s-.5-1.2-1.2-1.2h-3.3l1.5-5.5H21zm-7 5.6H8.5L10 9.2h5.5L14 14.8z" fill="#abb5bf"/></svg>