<svg viewBox="0 0 23.675 24" xmlns="http://www.w3.org/2000/svg"><path d="m-.162 0h24v24h-24z" fill="none"/><path d="m22.258 20.439-3.768-3.767c1.21-1.62 1.936-3.621 1.936-5.793 0-5.354-4.355-9.709-9.709-9.709s-9.709 4.355-9.709 9.709 4.355 9.71 9.708 9.71c2.172 0 4.174-.726 5.793-1.936l3.768 3.767c.273.273.632.41.99.41s.717-.137.99-.41c.547-.547.547-1.434 0-1.98zm-18.45-9.56c0-3.81 3.099-6.909 6.909-6.909s6.909 3.1 6.909 6.909-3.099 6.909-6.909 6.909-6.909-3.1-6.909-6.909z" fill="#8f959e"/></svg>